<mxfile host="app.diagrams.net" modified="2022-04-26T04:42:15.830Z" agent="5.0 (Windows NT 10.0; Win64; x64) AppleWebKit/537.36 (KHTML, like Gecko) Chrome/100.0.4896.127 Safari/537.36 Edg/100.0.1185.50" etag="yVrs8Um8sCP8UkgNjidU" version="17.4.6" type="github">
  <diagram id="0EdzQCC7KpnHScNilkkj" name="Page-1">
    <mxGraphModel dx="1038" dy="579" grid="1" gridSize="10" guides="1" tooltips="1" connect="1" arrows="1" fold="1" page="1" pageScale="1" pageWidth="850" pageHeight="1100" math="0" shadow="0">
      <root>
        <mxCell id="0" />
        <mxCell id="1" parent="0" />
        <mxCell id="D1b4FFmhPCELhxLGmpMt-3" value="" style="edgeStyle=orthogonalEdgeStyle;rounded=0;orthogonalLoop=1;jettySize=auto;html=1;" edge="1" parent="1" source="D1b4FFmhPCELhxLGmpMt-1" target="D1b4FFmhPCELhxLGmpMt-2">
          <mxGeometry relative="1" as="geometry" />
        </mxCell>
        <mxCell id="D1b4FFmhPCELhxLGmpMt-1" value="create simulator instance and assign default props" style="rounded=1;whiteSpace=wrap;html=1;" vertex="1" parent="1">
          <mxGeometry x="320" y="80" width="120" height="60" as="geometry" />
        </mxCell>
        <mxCell id="D1b4FFmhPCELhxLGmpMt-5" value="" style="edgeStyle=orthogonalEdgeStyle;rounded=0;orthogonalLoop=1;jettySize=auto;html=1;" edge="1" parent="1" source="D1b4FFmhPCELhxLGmpMt-2" target="D1b4FFmhPCELhxLGmpMt-4">
          <mxGeometry relative="1" as="geometry" />
        </mxCell>
        <mxCell id="D1b4FFmhPCELhxLGmpMt-2" value="set timer step and simulation defaults" style="whiteSpace=wrap;html=1;rounded=1;" vertex="1" parent="1">
          <mxGeometry x="320" y="160" width="120" height="60" as="geometry" />
        </mxCell>
        <mxCell id="D1b4FFmhPCELhxLGmpMt-7" value="" style="edgeStyle=orthogonalEdgeStyle;rounded=0;orthogonalLoop=1;jettySize=auto;html=1;" edge="1" parent="1" source="D1b4FFmhPCELhxLGmpMt-4" target="D1b4FFmhPCELhxLGmpMt-6">
          <mxGeometry relative="1" as="geometry" />
        </mxCell>
        <mxCell id="D1b4FFmhPCELhxLGmpMt-4" value="create nano timer instance" style="whiteSpace=wrap;html=1;rounded=1;" vertex="1" parent="1">
          <mxGeometry x="320" y="250" width="120" height="60" as="geometry" />
        </mxCell>
        <mxCell id="D1b4FFmhPCELhxLGmpMt-6" value="create the two player elixir instance" style="whiteSpace=wrap;html=1;rounded=1;" vertex="1" parent="1">
          <mxGeometry x="320" y="340" width="120" height="60" as="geometry" />
        </mxCell>
      </root>
    </mxGraphModel>
  </diagram>
</mxfile>
